<?xml version="1.0" encoding="UTF-8"?>
<svg id="Ebene_2" data-name="Ebene 2" xmlns="http://www.w3.org/2000/svg" width="489.24" height="175.33" viewBox="0 0 489.24 175.33">
  <defs>
    <style>
      .cls-1 {
        fill: #fff;
      }
    </style>
  </defs>
  <g id="Ebene_1-2" data-name="Ebene 1">
    <polyline class="cls-1" points="367.17 112.47 446.35 158.18 449.65 156.28 370.47 110.57"/>
    <polyline class="cls-1" points="357.27 118.18 436.45 163.9 439.75 162 360.57 116.28"/>
    <polyline class="cls-1" points="347.37 123.9 426.55 169.61 429.85 167.71 350.67 122"/>
    <polyline class="cls-1" points="337.47 129.61 416.66 175.33 419.96 173.42 340.77 127.71"/>
    <polygon class="cls-1" points="406.76 89.61 485.95 135.33 489.24 133.42 410.06 87.7 406.76 89.61"/>
    <polyline class="cls-1" points="396.86 95.33 476.04 141.04 479.34 139.14 400.16 93.42"/>
    <polyline class="cls-1" points="386.96 101.04 466.14 146.75 469.45 144.85 390.26 99.14"/>
    <polyline class="cls-1" points="377.06 106.75 456.25 152.47 459.55 150.57 380.37 104.85"/>
    <polygon class="cls-1" points="485.94 47.62 485.94 135.33 489.24 133.42 489.24 45.72 485.94 47.62"/>
    <polygon class="cls-1" points="476.04 53.34 476.04 141.04 479.34 139.13 479.34 51.43 476.04 53.34"/>
    <polygon class="cls-1" points="466.15 59.05 466.15 146.76 469.45 144.85 469.45 57.15 466.15 59.05"/>
    <polygon class="cls-1" points="456.25 64.77 456.25 152.47 459.54 150.56 459.54 62.86 456.25 64.77"/>
    <polygon class="cls-1" points="446.35 70.48 446.35 158.19 449.65 156.28 449.65 68.57 446.35 70.48"/>
    <polygon class="cls-1" points="436.45 76.2 436.45 163.9 439.75 161.99 439.75 74.29 436.45 76.2"/>
    <polygon class="cls-1" points="426.56 81.91 426.56 169.62 429.85 167.71 429.85 80 426.56 81.91"/>
    <polygon class="cls-1" points="416.66 87.63 416.66 175.33 419.96 173.42 419.96 85.72 416.66 87.63"/>
    <polyline class="cls-1" points="367.17 24.77 446.35 70.48 449.65 68.58 370.47 22.86"/>
    <polyline class="cls-1" points="357.27 30.48 436.45 76.19 439.75 74.29 360.57 28.58"/>
    <polyline class="cls-1" points="347.37 36.19 426.55 81.91 429.85 80.01 350.67 34.29"/>
    <polyline class="cls-1" points="337.47 41.91 416.65 87.62 419.95 85.72 340.77 40.01"/>
    <polygon class="cls-1" points="410.06 0 406.76 1.91 485.94 47.62 489.24 45.72 410.06 0"/>
    <polyline class="cls-1" points="396.86 7.62 476.04 53.33 479.34 51.43 400.16 5.72"/>
    <polyline class="cls-1" points="386.96 13.34 466.14 59.05 469.44 57.15 390.26 11.43"/>
    <polyline class="cls-1" points="377.06 19.05 456.25 64.76 459.55 62.86 380.36 17.15"/>
    <polygon class="cls-1" points="244.62 0 165.44 45.72 165.44 49.53 244.62 3.82 244.62 0"/>
    <polyline class="cls-1" points="244.62 15.28 165.44 61 165.44 57.19 244.62 11.47"/>
    <polyline class="cls-1" points="244.62 26.71 165.44 72.42 165.44 68.62 244.62 22.9"/>
    <polyline class="cls-1" points="244.62 38.18 165.44 83.89 165.44 80.09 244.62 34.37"/>
    <polyline class="cls-1" points="244.62 49.53 165.44 95.24 165.44 91.44 244.62 45.72"/>
    <polyline class="cls-1" points="244.62 61 165.44 106.71 165.44 102.91 244.62 57.19"/>
    <polyline class="cls-1" points="244.62 72.43 165.44 118.14 165.44 114.34 244.62 68.62"/>
    <polyline class="cls-1" points="244.62 83.9 165.44 129.61 165.44 125.81 244.62 80.09"/>
    <polygon class="cls-1" points="244.62 0 244.62 3.82 323.81 49.53 323.81 45.72 244.62 0"/>
    <polyline class="cls-1" points="244.62 15.28 323.8 61 323.8 57.19 244.62 11.47"/>
    <polyline class="cls-1" points="244.62 26.71 323.8 72.42 323.8 68.62 244.62 22.9"/>
    <polyline class="cls-1" points="244.62 38.18 323.8 83.89 323.8 80.09 244.62 34.37"/>
    <polyline class="cls-1" points="244.62 49.53 323.8 95.24 323.8 91.44 244.62 45.72"/>
    <polyline class="cls-1" points="244.62 61 323.8 106.71 323.8 102.91 244.62 57.19"/>
    <polyline class="cls-1" points="244.62 72.43 323.8 118.14 323.8 114.34 244.62 68.62"/>
    <polyline class="cls-1" points="244.62 83.9 323.8 129.61 323.8 125.81 244.62 80.09"/>
    <polyline class="cls-1" points="323.81 49.53 244.62 95.24 244.62 91.44 323.81 45.72"/>
    <polyline class="cls-1" points="323.81 61 244.62 106.71 244.62 102.91 323.81 57.19"/>
    <polyline class="cls-1" points="323.81 72.43 244.62 118.14 244.62 114.34 323.81 68.62"/>
    <polyline class="cls-1" points="323.81 83.9 244.62 129.61 244.62 125.81 323.81 80.09"/>
    <polyline class="cls-1" points="323.81 95.24 244.62 140.96 244.62 137.15 323.81 91.43"/>
    <polyline class="cls-1" points="323.81 106.71 244.62 152.43 244.62 148.62 323.81 102.9"/>
    <polyline class="cls-1" points="323.81 118.14 244.62 163.86 244.62 160.05 323.81 114.33"/>
    <polyline class="cls-1" points="323.81 129.61 244.62 175.33 244.62 171.52 323.81 125.8"/>
    <polyline class="cls-1" points="122.08 112.47 42.89 158.18 39.59 156.28 118.78 110.57"/>
    <polyline class="cls-1" points="131.97 118.18 52.79 163.9 49.49 162 128.67 116.28"/>
    <polyline class="cls-1" points="141.87 123.9 62.69 169.61 59.39 167.71 138.57 122"/>
    <polyline class="cls-1" points="151.77 129.61 72.59 175.33 69.29 173.42 148.47 127.71"/>
    <polygon class="cls-1" points="0 133.42 3.3 135.33 82.49 89.61 79.19 87.71 0 133.42"/>
    <polyline class="cls-1" points="92.38 95.33 13.2 141.04 9.9 139.14 89.08 93.42"/>
    <polyline class="cls-1" points="102.28 101.04 23.1 146.75 19.8 144.85 98.98 99.14"/>
    <polyline class="cls-1" points="112.18 106.75 33 152.47 29.7 150.57 108.88 104.85"/>
    <polygon class="cls-1" points="0 133.43 3.3 135.33 3.3 47.62 0 45.72 0 133.43"/>
    <polygon class="cls-1" points="9.9 139.13 13.2 141.04 13.2 53.34 9.9 51.44 9.9 139.13"/>
    <polygon class="cls-1" points="19.8 144.85 23.09 146.76 23.09 59.05 19.8 57.15 19.8 144.85"/>
    <polygon class="cls-1" points="29.7 150.56 33 152.47 33 64.77 29.7 62.87 29.7 150.56"/>
    <polygon class="cls-1" points="39.59 156.28 42.89 158.19 42.89 70.48 39.59 68.57 39.59 156.28"/>
    <polygon class="cls-1" points="49.49 161.99 52.79 163.9 52.79 76.2 49.49 74.29 49.49 161.99"/>
    <polygon class="cls-1" points="59.39 167.71 62.69 169.62 62.69 81.91 59.39 80 59.39 167.71"/>
    <polygon class="cls-1" points="69.29 173.42 72.59 175.33 72.59 87.63 69.29 85.72 69.29 173.42"/>
    <polyline class="cls-1" points="122.08 24.77 42.9 70.48 39.59 68.58 118.78 22.86"/>
    <polyline class="cls-1" points="131.97 30.48 52.79 76.19 49.49 74.29 128.67 28.58"/>
    <polyline class="cls-1" points="141.87 36.19 62.69 81.91 59.39 80.01 138.57 34.29"/>
    <polyline class="cls-1" points="151.77 41.91 72.59 87.62 69.29 85.72 148.47 40.01"/>
    <polygon class="cls-1" points="79.19 0 0 45.72 3.31 47.62 82.48 1.91 79.19 0"/>
    <polyline class="cls-1" points="92.38 7.62 13.2 53.33 9.9 51.43 89.08 5.72"/>
    <polyline class="cls-1" points="102.28 13.34 23.1 59.05 19.8 57.15 98.98 11.43"/>
    <polyline class="cls-1" points="112.18 19.05 33 64.76 29.7 62.86 108.88 17.15"/>
  </g>
</svg>