<?xml version="1.0" encoding="UTF-8"?>
<svg id="Ebene_2" data-name="Ebene 2" xmlns="http://www.w3.org/2000/svg" width="139.16" height="49.87" viewBox="0 0 139.16 49.87">
  <defs>
    <style>
      .cls-1 {
        fill: #fff;
      }
    </style>
  </defs>
  <g id="Ebene_1-2" data-name="Ebene 1">
    <polyline class="cls-1" points="104.44 31.99 126.96 44.99 127.9 44.45 105.38 31.45"/>
    <polyline class="cls-1" points="101.62 33.62 124.15 46.62 125.08 46.08 102.56 33.08"/>
    <polyline class="cls-1" points="98.81 35.24 121.33 48.24 122.27 47.7 99.75 34.7"/>
    <polyline class="cls-1" points="95.99 36.87 118.51 49.87 119.45 49.33 96.93 36.33"/>
    <polygon class="cls-1" points="115.7 25.49 138.22 38.49 139.16 37.95 116.64 24.95 115.7 25.49"/>
    <polyline class="cls-1" points="112.88 27.11 135.41 40.12 136.35 39.58 113.82 26.57"/>
    <polyline class="cls-1" points="110.07 28.74 132.59 41.74 133.53 41.2 111.01 28.2"/>
    <polyline class="cls-1" points="107.25 30.37 129.78 43.37 130.71 42.83 108.19 29.82"/>
    <polygon class="cls-1" points="138.22 13.55 138.22 38.49 139.16 37.95 139.16 13 138.22 13.55"/>
    <polygon class="cls-1" points="135.41 15.17 135.41 40.12 136.35 39.58 136.35 14.63 135.41 15.17"/>
    <polygon class="cls-1" points="132.59 16.8 132.59 41.74 133.53 41.2 133.53 16.26 132.59 16.8"/>
    <polygon class="cls-1" points="129.78 18.42 129.78 43.37 130.71 42.83 130.71 17.88 129.78 18.42"/>
    <polygon class="cls-1" points="126.96 20.05 126.96 44.99 127.9 44.45 127.9 19.5 126.96 20.05"/>
    <polygon class="cls-1" points="124.15 21.67 124.15 46.62 125.08 46.08 125.08 21.13 124.15 21.67"/>
    <polygon class="cls-1" points="121.33 23.3 121.33 48.25 122.27 47.7 122.27 22.76 121.33 23.3"/>
    <polygon class="cls-1" points="118.51 24.92 118.51 49.87 119.45 49.33 119.45 24.38 118.51 24.92"/>
    <polyline class="cls-1" points="104.44 7.04 126.96 20.05 127.9 19.51 105.38 6.5"/>
    <polyline class="cls-1" points="101.62 8.67 124.14 21.67 125.08 21.13 102.56 8.13"/>
    <polyline class="cls-1" points="98.81 10.3 121.33 23.3 122.27 22.76 99.75 9.75"/>
    <polyline class="cls-1" points="95.99 11.92 118.51 24.92 119.45 24.38 96.93 11.38"/>
    <polygon class="cls-1" points="116.64 0 115.7 .54 138.22 13.55 139.16 13 116.64 0"/>
    <polyline class="cls-1" points="112.88 2.17 135.41 15.17 136.35 14.63 113.82 1.63"/>
    <polyline class="cls-1" points="110.07 3.79 132.59 16.8 133.53 16.26 111.01 3.25"/>
    <polyline class="cls-1" points="107.25 5.42 129.78 18.42 130.71 17.88 108.19 4.88"/>
    <polygon class="cls-1" points="69.58 0 47.06 13 47.06 14.09 69.58 1.09 69.58 0"/>
    <polyline class="cls-1" points="69.58 4.35 47.06 17.35 47.06 16.27 69.58 3.26"/>
    <polyline class="cls-1" points="69.58 7.6 47.06 20.6 47.06 19.52 69.58 6.51"/>
    <polyline class="cls-1" points="69.58 10.86 47.06 23.86 47.06 22.78 69.58 9.78"/>
    <polyline class="cls-1" points="69.58 14.09 47.06 27.09 47.06 26.01 69.58 13"/>
    <polyline class="cls-1" points="69.58 17.35 47.06 30.35 47.06 29.27 69.58 16.27"/>
    <polyline class="cls-1" points="69.58 20.6 47.06 33.6 47.06 32.52 69.58 19.52"/>
    <polyline class="cls-1" points="69.58 23.86 47.06 36.87 47.06 35.78 69.58 22.78"/>
    <polygon class="cls-1" points="69.58 0 69.58 1.09 92.1 14.09 92.1 13 69.58 0"/>
    <polyline class="cls-1" points="69.58 4.35 92.1 17.35 92.1 16.27 69.58 3.26"/>
    <polyline class="cls-1" points="69.58 7.6 92.1 20.6 92.1 19.52 69.58 6.51"/>
    <polyline class="cls-1" points="69.58 10.86 92.1 23.86 92.1 22.78 69.58 9.78"/>
    <polyline class="cls-1" points="69.58 14.09 92.1 27.09 92.1 26.01 69.58 13"/>
    <polyline class="cls-1" points="69.58 17.35 92.1 30.35 92.1 29.27 69.58 16.27"/>
    <polyline class="cls-1" points="69.58 20.6 92.1 33.6 92.1 32.52 69.58 19.52"/>
    <polyline class="cls-1" points="69.58 23.86 92.1 36.87 92.1 35.78 69.58 22.78"/>
    <polyline class="cls-1" points="92.1 14.09 69.58 27.09 69.58 26.01 92.1 13"/>
    <polyline class="cls-1" points="92.1 17.35 69.58 30.35 69.58 29.27 92.1 16.27"/>
    <polyline class="cls-1" points="92.1 20.6 69.58 33.6 69.58 32.52 92.1 19.52"/>
    <polyline class="cls-1" points="92.1 23.86 69.58 36.87 69.58 35.78 92.1 22.78"/>
    <polyline class="cls-1" points="92.1 27.09 69.58 40.09 69.58 39.01 92.1 26.01"/>
    <polyline class="cls-1" points="92.1 30.35 69.58 43.36 69.58 42.28 92.1 29.27"/>
    <polyline class="cls-1" points="92.1 33.61 69.58 46.61 69.58 45.53 92.1 32.52"/>
    <polyline class="cls-1" points="92.1 36.87 69.58 49.87 69.58 48.79 92.1 35.78"/>
    <polyline class="cls-1" points="34.72 31.99 12.2 44.99 11.26 44.45 33.78 31.45"/>
    <polyline class="cls-1" points="37.54 33.62 15.02 46.62 14.08 46.08 36.6 33.08"/>
    <polyline class="cls-1" points="40.35 35.24 17.83 48.24 16.89 47.7 39.42 34.7"/>
    <polyline class="cls-1" points="43.17 36.87 20.65 49.87 19.71 49.33 42.23 36.33"/>
    <polygon class="cls-1" points="0 37.95 .94 38.49 23.46 25.49 22.53 24.95 0 37.95"/>
    <polyline class="cls-1" points="26.28 27.11 3.75 40.12 2.82 39.58 25.34 26.57"/>
    <polyline class="cls-1" points="29.09 28.74 6.57 41.74 5.63 41.2 28.15 28.2"/>
    <polyline class="cls-1" points="31.91 30.37 9.39 43.37 8.45 42.83 30.97 29.82"/>
    <polygon class="cls-1" points="0 37.95 .94 38.49 .94 13.55 0 13 0 37.95"/>
    <polygon class="cls-1" points="2.82 39.58 3.75 40.12 3.75 15.17 2.82 14.63 2.82 39.58"/>
    <polygon class="cls-1" points="5.63 41.2 6.57 41.74 6.57 16.8 5.63 16.26 5.63 41.2"/>
    <polygon class="cls-1" points="8.45 42.83 9.39 43.37 9.39 18.42 8.45 17.88 8.45 42.83"/>
    <polygon class="cls-1" points="11.26 44.45 12.2 45 12.2 20.05 11.26 19.51 11.26 44.45"/>
    <polygon class="cls-1" points="14.08 46.08 15.02 46.62 15.02 21.67 14.08 21.13 14.08 46.08"/>
    <polygon class="cls-1" points="16.89 47.7 17.83 48.25 17.83 23.3 16.89 22.76 16.89 47.7"/>
    <polygon class="cls-1" points="19.71 49.33 20.65 49.87 20.65 24.93 19.71 24.38 19.71 49.33"/>
    <polyline class="cls-1" points="34.72 7.04 12.2 20.05 11.26 19.51 33.79 6.5"/>
    <polyline class="cls-1" points="37.54 8.67 15.02 21.67 14.08 21.13 36.6 8.13"/>
    <polyline class="cls-1" points="40.35 10.3 17.83 23.3 16.89 22.76 39.42 9.75"/>
    <polyline class="cls-1" points="43.17 11.92 20.65 24.92 19.71 24.38 42.23 11.38"/>
    <polygon class="cls-1" points="22.52 0 0 13 .94 13.55 23.46 .54 22.52 0"/>
    <polyline class="cls-1" points="26.28 2.17 3.76 15.17 2.82 14.63 25.34 1.63"/>
    <polyline class="cls-1" points="29.09 3.79 6.57 16.8 5.63 16.26 28.15 3.25"/>
    <polyline class="cls-1" points="31.91 5.42 9.39 18.42 8.45 17.88 30.97 4.88"/>
  </g>
</svg>