<?xml version="1.0" encoding="UTF-8"?>
<svg id="Ebene_2" data-name="Ebene 2" xmlns="http://www.w3.org/2000/svg" width="168.73" height="100.12" viewBox="0 0 168.73 100.12">
  <defs>
    <style>
      .cls-1 {
        fill: #fff;
      }
    </style>
  </defs>
  <g id="Ebene_1-2" data-name="Ebene 1">
    <g>
      <path class="cls-1" d="M22.55,33.95h23.21V10.09h16.07v61.83h-16.07v-25.5H22.55v25.5H6.48V10.09H22.55v23.86Z"/>
      <path class="cls-1" d="M72.65,64.04c0-1.31,.25-2.55,.74-3.73s1.17-2.2,2.05-3.08,1.9-1.56,3.08-2.05c1.17-.49,2.42-.74,3.73-.74s2.55,.25,3.73,.74c1.17,.49,2.2,1.18,3.08,2.05,.87,.88,1.56,1.9,2.05,3.08s.74,2.42,.74,3.73-.25,2.56-.74,3.73c-.49,1.18-1.18,2.2-2.05,3.07-.88,.88-1.9,1.56-3.08,2.05-1.18,.49-2.42,.74-3.73,.74s-2.56-.25-3.73-.74c-1.18-.49-2.2-1.17-3.08-2.05-.88-.87-1.56-1.9-2.05-3.07-.49-1.17-.74-2.42-.74-3.73Z"/>
      <path class="cls-1" d="M138.09,23.7h-19.35v10.33h17.63v13.61h-17.63v24.27h-16.07V10.09h35.42v13.61Z"/>
      <path class="cls-1" d="M142.84,64.04c0-1.31,.25-2.55,.74-3.73s1.17-2.2,2.05-3.08,1.9-1.56,3.08-2.05c1.17-.49,2.42-.74,3.73-.74s2.55,.25,3.73,.74c1.17,.49,2.2,1.18,3.08,2.05,.87,.88,1.56,1.9,2.05,3.08s.74,2.42,.74,3.73-.25,2.56-.74,3.73c-.49,1.18-1.18,2.2-2.05,3.07-.88,.88-1.9,1.56-3.08,2.05-1.18,.49-2.42,.74-3.73,.74s-2.56-.25-3.73-.74c-1.18-.49-2.2-1.17-3.08-2.05-.88-.87-1.56-1.9-2.05-3.07-.49-1.17-.74-2.42-.74-3.73Z"/>
    </g>
  </g>
</svg>